<?xml version="1.0" encoding="UTF-8"?>
<svg width="210" height="70" version="1.1" viewBox="0 0 55.562 18.521" xmlns="http://www.w3.org/2000/svg" xmlns:cc="http://creativecommons.org/ns#" xmlns:dc="http://purl.org/dc/elements/1.1/" xmlns:rdf="http://www.w3.org/1999/02/22-rdf-syntax-ns#">
 <metadata>
  <rdf:RDF>
   <cc:Work rdf:about="">
    <dc:format>image/svg+xml</dc:format>
    <dc:type rdf:resource="http://purl.org/dc/dcmitype/StillImage"/>
    <dc:title/>
   </cc:Work>
  </rdf:RDF>
 </metadata>
 <text font-family="'Nexa Script'" font-size="10.583px" style="line-height:1.25;shape-inside:url(#rect456);white-space:pre" xml:space="preserve"/>
 <g transform="translate(-.32376 1.7896)" style="shape-inside:url(#rect462);white-space:pre" aria-label="Ufa News">
  <g stroke-width=".26458" aria-label="Власть">
   <path d="m16.087 2.1876q1.2171 0.010583 1.9367 0.62441 0.71966 0.60325 0.55033 1.524-0.10583 0.58208-0.60325 0.97366-0.48683 0.381-1.0477 0.45508 0.6985 0.09525 1.1642 0.67733 0.47625 0.5715 0.381 1.3335-0.13758 0.94191-0.75141 1.4287-0.60325 0.48683-1.5875 0.46567-0.92075-0.021167-1.9156-0.75141-0.51858 0.73025-1.4605 0.75141-0.56092 0-0.94191-0.26458-0.381-0.27517-0.37042-0.78316 0.01058-0.5715 0.41275-0.85725 0.41275-0.29633 0.97366-0.23283 0.5715 0.052917 1.0795 0.40217 0.1905-0.47625 0.37042-1.143 0.1905-0.66675 0.32808-1.1747 0.13758-0.51858 0.30692-1.0054 0.17992-0.49742 0.43392-0.80433 0.254-0.3175 0.60325-0.40217 0.24342-0.074083 0.39158 0.127 0.09525 0.13758-0.03175 0.23283-0.15875 0.074083-0.28575 0.22225-0.11642 0.13758-0.21167 0.35983-0.08467 0.21167-0.13758 0.37042-0.05292 0.15875-0.13758 0.4445-0.07408 0.27517-0.10583 0.381 0.87841 0.03175 1.4922-0.27517 0.61383-0.3175 0.77258-0.94191 0.15875-0.64558-0.27517-1.0583-0.42333-0.41275-1.3652-0.42333-0.87841-0.010583-1.5769 0.37042-0.68791 0.381-0.91016 0.98425-0.21167 0.59266 0.1905 1.3335 0.0635 0.16933-0.16933 0.32808-0.22225 0.15875-0.37042 0.042333-0.43392-0.3175-0.55033-0.81491-0.11642-0.49742 0.021167-0.96308 0.14817-0.47625 0.47625-0.8255 1.0583-1.1218 2.921-1.1112zm-0.8255 3.8735q-0.02117 0.0635-0.17992 0.635-0.14817 0.56091-0.28575 0.9525-0.127 0.39158-0.28575 0.73025 0.58208 0.48683 1.2594 0.61383 0.68792 0.127 1.2171-0.21167 0.53975-0.33867 0.62441-1.1112 0.0635-0.635-0.28575-1.0266-0.33866-0.39158-0.89958-0.508-0.53975-0.11642-1.1642-0.074083zm-2.3495 2.0426q-0.46566-0.074083-0.66675 0.26458-0.16933 0.29633 0.07408 0.51858 0.1905 0.17992 0.56092 0.15875 0.43392-0.03175 0.78316-0.59266-0.4445-0.32808-0.75141-0.34925z"/>
   <path d="m21.942 9.6911q-0.22225 0-0.381-0.052917-0.15875-0.052917-0.26458-0.1905-0.09525-0.14817-0.16933-0.29633-0.0635-0.15875-0.07408-0.43392-0.01058-0.27517-0.01058-0.508 0.01058-0.23283 0.05292-0.635 0.05292-0.40217 0.09525-0.70908 0.05292-0.30692 0.13758-0.81491h-0.02117q-0.60325 0.60325-1.1324 1.6192-0.51858 1.016-0.73025 1.8097-0.05292 0.1905-0.41275 0.1905-0.34925 0-0.37042-0.17992 0-0.03175 0.01058-0.0635 0.83608-2.4871 2.3601-4.0746 0.20108-0.21167 0.6985-0.17992 0.39158 0.042333 0.381 0.21167-0.3175 2.4977-0.30692 2.9951 0.02117 0.71966 0.37042 0.70908 0.34925-0.03175 0.79375-0.49742 0.45508-0.46567 0.86783-1.4605 0.03175-0.042333 0.11642-0.021167 0.08467 0.010583 0.15875 0.084666 0.07408 0.074083 0.04233 0.13758-0.56091 1.2806-1.1007 1.8203-0.52916 0.52916-1.1112 0.53975z"/>
   <path d="m26.118 5.1191q0.55033-0.09525 1.1324 0.03175 0.58208 0.127 0.97366 0.52916 0.08467 0.10583-0.127 0.3175-0.20108 0.21167-0.30692 0.127-0.70908-0.53975-1.4711-0.40217-0.43392 0.074083-0.84666 0.4445-0.40217 0.35983-0.67733 0.889-0.29633 0.53975-0.34925 1.1007-0.05292 0.56091 0.15875 0.78316 0.254 0.26458 0.6985-0.074083 0.4445-0.33867 0.85725-1.0795t0.60325-1.5557q0.05292-0.11642 0.24342-0.11642 0.20108 0 0.35983 0.084666 0.16933 0.084666 0.16933 0.1905-0.41275 1.5028-0.47625 1.8732-0.127 0.74083 0.21167 0.74083 0.32808 0 0.80433-0.55033 0.47625-0.55033 0.78316-1.3123 0.03175-0.052917 0.11642-0.03175 0.08467 0.010583 0.15875 0.084666 0.08467 0.0635 0.05292 0.13758-1.016 2.2648-2.2542 2.2648-0.37042 0-0.56092-0.34925-0.1905-0.35983-0.074086-0.93133-0.381 0.635-0.75141 0.99483-0.37042 0.34925-0.91016 0.35983-0.62442 0.021167-0.91016-0.46567-0.29633-0.48683-0.15875-1.2912 0.16933-0.97366 0.89958-1.7992 0.74083-0.83608 1.651-0.99483z"/>
   <path d="m31.278 5.0874q0.62442 0.010583 0.92075 0.3175 0.29633 0.30692 0.22225 0.70908-0.0635 0.39158-0.41275 0.6985-0.09525 0.084666-0.29633 0.09525-0.1905 0-0.33866-0.052917-0.13758-0.0635-0.10583-0.14817 0.17992-0.20108 0.26458-0.41275 0.08467-0.22225 0.02117-0.39158-0.05292-0.17992-0.30692-0.20108-0.53975-0.052917-1.0372 0.59266-0.48683 0.635-0.5715 1.4605-0.05292 0.55033 0.22225 0.91016 0.27517 0.34925 0.81491 0.39158 0.75141 0.052917 1.4287-0.43392 0.68792-0.49742 1.1007-1.4922 0.03175-0.042333 0.11642-0.021167 0.08467 0.010583 0.15875 0.084666 0.07408 0.074083 0.04233 0.13758-1.0054 2.4236-3.1432 2.3389-0.79375-0.042333-1.2488-0.61383-0.4445-0.5715-0.39158-1.3441 0.0635-1.0054 0.80433-1.8203 0.74083-0.81491 1.7357-0.80433z"/>
   <path d="m38.35 9.6805q-0.508 0.010583-0.70908-0.27517-0.1905-0.28575-0.10583-0.79375 0.03175-0.21167 0.11642-0.5715 0.09525-0.35983 0.21167-0.80433 0.11642-0.4445 0.16933-0.66675 0.21167-0.81491-0.16933-0.81491-0.34925 0.010583-0.85725 0.56091-0.49742 0.55033-0.67733 1.1324-0.08467 0.32808-0.254 1.0372-0.15875 0.70908-0.23283 0.94191-0.04233 0.10583-0.26458 0.14817-0.21167 0.052917-0.41275 0-0.1905-0.052916-0.1905-0.16933 0.42333-1.6722 0.71966-2.8681 0.17992-0.762-0.21167-0.762-0.29633-0.010583-0.73025 0.46567-0.42333 0.47625-0.74083 1.1218-0.254 0.91016-0.52916 2.0955-0.03175 0.10583-0.26458 0.13758-0.23283 0.03175-0.43392-0.042333-0.21167-0.074083-0.17992-0.23283 0.61383-2.2013 1.0689-4.064 0.05292-0.11642 0.254-0.13758 0.21167-0.021167 0.39158 0.0635 0.1905 0.074083 0.17992 0.21167-0.04233 0.16933-0.127 0.49742-0.08467 0.3175-0.14817 0.508 0.3175-0.55033 0.75141-0.94191 0.4445-0.39158 0.91016-0.381 0.43392 0.010583 0.62442 0.34925 0.20108 0.33867 0.07408 0.86783 0.81491-1.2277 1.6404-1.2171 1.0372 0.010583 0.74083 1.3864-0.03175 0.13758-0.10583 0.381-0.0635 0.23283-0.13758 0.46567-0.07408 0.23283-0.14817 0.49742-0.07408 0.26458-0.127 0.48683-0.04233 0.22225-0.0635 0.40217-0.01058 0.17992 0.03175 0.28575 0.05292 0.09525 0.15875 0.09525 0.34925-0.010583 0.80433-0.60325 0.46566-0.59266 0.762-1.3441 0.04233-0.042333 0.127-0.03175 0.08467 0.010583 0.15875 0.084666t0.04233 0.14817q-0.17992 0.41275-0.39158 0.78316-0.20108 0.37042-0.47625 0.74083-0.27516 0.37042-0.60325 0.59266-0.3175 0.22225-0.64558 0.23283z"/>
   <path d="m44.459 7.13q0.03175-0.042333 0.11642-0.021167 0.08467 0.010583 0.15875 0.084666 0.08467 0.074083 0.05292 0.13758-0.74083 1.7674-1.9791 1.6192-0.61383 0.74083-1.6404 0.73025-1.1112-0.010583-1.2065-1.1642-0.05292-1.0054 0.6985-3.2597 0.04233-0.13758 0.26458-0.15875 0.22225-0.03175 0.40216 0.042333 0.1905 0.0635 0.15875 0.16933-0.381 0.99483-0.5715 1.8097 0.254-0.35983 0.66675-0.58208 0.41275-0.23283 0.85725-0.16933 0.4445 0.0635 0.65616 0.42333 0.21167 0.35983 0.17992 0.8255-0.02117 0.46567-0.21167 0.92075 0.41275 0.010583 0.77258-0.35983 0.37042-0.37042 0.62442-1.0477zm-2.0214 0.87841q0.26458-0.94191-0.32808-1.0372-0.41275-0.0635-0.83608 0.26458-0.42333 0.3175-0.55033 0.91016-0.07408 0.91016 0.53975 0.92075 0.52916 0.010583 0.86783-0.4445-0.13758-0.24342 0-0.4445t0.30692-0.16933z"/>
  </g>
 </g>
</svg>
