<?xml version="1.0" encoding="UTF-8"?>
<svg width="210" height="70" version="1.1" viewBox="0 0 55.562 18.521" xmlns="http://www.w3.org/2000/svg" xmlns:cc="http://creativecommons.org/ns#" xmlns:dc="http://purl.org/dc/elements/1.1/" xmlns:rdf="http://www.w3.org/1999/02/22-rdf-syntax-ns#">
 <metadata>
  <rdf:RDF>
   <cc:Work rdf:about="">
    <dc:format>image/svg+xml</dc:format>
    <dc:type rdf:resource="http://purl.org/dc/dcmitype/StillImage"/>
    <dc:title/>
   </cc:Work>
  </rdf:RDF>
 </metadata>
 <text font-family="'Nexa Script'" font-size="10.583px" style="line-height:1.25;shape-inside:url(#rect456);white-space:pre" xml:space="preserve"/>
 <g transform="translate(-.32376 1.7896)" style="shape-inside:url(#rect462);white-space:pre" aria-label="Ufa News">
  <path d="m5.6437 1.274q0.0889-0.1778 0.3429-0.1905 0.2667-0.0254 0.4699 0.0889 0.2159 0.1143 0.1778 0.2921-0.5715 1.8288-1.6256 5.7531-0.1016 0.3683-0.1397 0.6985t-0.0127 0.6477q0.0254 0.3048 0.1905 0.4826 0.1651 0.1778 0.4699 0.1778 0.762-0.0127 1.5367-0.8128 0.7874-0.8128 1.0668-1.7018 0.5969-1.9812 1.4097-5.1054 0.0889-0.1778 0.3429-0.1905 0.2667-0.0127 0.4699 0.1397 0.2159 0.1524 0.1651 0.381-0.6858 2.1463-1.4351 5.0673-0.5461 2.2225 0.1778 2.2225 0.4699 0 1.0033-0.6858 0.5461-0.6858 0.9017-1.5621 0.0508-0.0635 0.1397-0.0381 0.1016 0.0254 0.1905 0.1143 0.0889 0.0762 0.0635 0.1524-1.1938 2.7305-2.6035 2.7305-0.4953 0-0.762-0.4318-0.2667-0.4445-0.2286-1.2065-0.4826 0.7493-1.1938 1.2573-0.7112 0.4953-1.4732 0.4826-2.1082-0.0127-1.2192-3.2766 0.2794-1.0668 1.2319-4.3942-0.381 0.4064-0.9398 0.7366-0.5461 0.3302-0.9525 0.4953-0.3937 0.1651-0.7366 0.4318-0.3302 0.254-0.3937 0.5842-0.1651 0.8001 0.5334 0.9144 0.1143 0.0254 0.127 0.1905 0.0254 0.1524-0.0508 0.3048-0.0762 0.1397-0.2286 0.127-0.8382-0.0254-1.2065-0.5334t-0.2159-1.1049q0.127-0.5842 0.635-0.9652 0.5207-0.381 1.1176-0.5715t1.3716-0.6223q0.7747-0.4445 1.2827-1.0795z" style="shape-inside:url(#rect462);white-space:pre"/>
  <path d="m12.918 2.1757q0.2794-0.4699 0.6604-0.7366t0.7366-0.2667q0.3556-0.0127 0.635 0.1397 0.2921 0.1524 0.4191 0.5334t0.0381 0.8763q-0.1397 0.762-0.4826 1.4478t-0.8255 1.1938q-0.4699 0.4953-0.9525 0.8636-0.4699 0.3556-0.9906 0.6223-0.254 0.889-0.3556 1.4224 0.0762 0.0127 0.3556 0.0635 0.2794 0.0381 0.3937 0.0508t0.381 0.0381q0.2667 0.0127 0.4064-0.0127 0.1524-0.0254 0.381-0.0635 0.2413-0.0508 0.3937-0.1651 0.1651-0.1143 0.3556-0.2667t0.3302-0.3937q0.1524-0.2413 0.2794-0.5461 0.0381-0.0508 0.1397-0.0254 0.1016 0.0127 0.1905 0.1016 0.0889 0.0762 0.0635 0.1524-0.254 0.6604-0.6223 1.0541-0.3556 0.3937-0.7493 0.508t-0.8509 0.1397q-0.4445 0.0254-0.8509-0.0635 0.4572 0.4572 0.6223 1.1303 0.1778 0.6858 0.0762 1.3462-0.0889 0.6604-0.3556 1.2446-0.5207 1.0668-1.4605 1.0668-1.1684 0-1.0668-1.4732 0.0889-1.9558 0.7493-4.572 0.9652-3.6957 1.9558-5.4102zm0.7874 0.3556q-0.6223 1.1557-1.3335 3.5179 1.7399-1.4351 2.159-3.4417 0.127-0.5461-0.1524-0.635-0.2921-0.0889-0.635 0.4826-0.0127 0.0381-0.0381 0.0762zm-2.0701 6.4389q-0.4572 2.0574-0.4953 3.1877-0.0127 0.7112 0.3048 0.6858 0.2921-0.0127 0.5334-0.5715l0.0635-0.1778q0.1905-0.5588 0.2413-1.1049 0.0635-0.5334-0.0889-1.1049-0.1397-0.5842-0.5588-0.9144z" style="shape-inside:url(#rect462);white-space:pre"/>
  <path d="m17.828 4.5633q0.6604-0.1143 1.3589 0.0381t1.1684 0.635q0.1016 0.127-0.1524 0.381-0.2413 0.254-0.3683 0.1524-0.8509-0.6477-1.7653-0.4826-0.5207 0.0889-1.016 0.5334-0.4826 0.4318-0.8128 1.0668-0.3556 0.6477-0.4191 1.3208t0.1905 0.9398q0.3048 0.3175 0.8382-0.0889 0.5334-0.4064 1.0287-1.2954t0.7239-1.8669q0.0635-0.1397 0.2921-0.1397 0.2413 0 0.4318 0.1016 0.2032 0.1016 0.2032 0.2286-0.4953 1.8034-0.5715 2.2479-0.1524 0.889 0.254 0.889 0.3937 0 0.9652-0.6604 0.5715-0.6604 0.9398-1.5748 0.0381-0.0635 0.1397-0.0381 0.1016 0.0127 0.1905 0.1016 0.1016 0.0762 0.0635 0.1651-1.2192 2.7178-2.7051 2.7178-0.4445 0-0.6731-0.4191-0.2286-0.4318-0.0889-1.1176-0.4572 0.762-0.9017 1.1938-0.4445 0.4191-1.0922 0.4318-0.7493 0.0254-1.0922-0.5588-0.3556-0.5842-0.1905-1.5494 0.2032-1.1684 1.0795-2.159 0.889-1.0033 1.9812-1.1938z" style="shape-inside:url(#rect462);white-space:pre"/>
  <path d="m33.549 1.0581q0.4064 0 0.6858 0.1397 0.2921 0.1397 0.4318 0.3429 0.1524 0.1905 0.2032 0.5207 0.0635 0.3175 0.0508 0.5842 0 0.254-0.0762 0.6477-0.0762 0.381-0.127 0.5842-0.0508 0.1905-0.1397 0.508-0.0381 0.127-0.0508 0.1778-0.0889 0.3175-0.2286 0.8128-0.1397 0.4826-0.2413 0.8128-0.0889 0.3302-0.2032 0.7747-0.1143 0.4318-0.1778 0.7493-0.0508 0.3048-0.1016 0.6731-0.0508 0.3556-0.0254 0.6223 0.0254 0.254 0.0889 0.508 0.0635 0.2413 0.2032 0.4191 0.1524 0.1778 0.3683 0.2794 0.1143 0.1016 0.0889 0.2921-0.0254 0.2032-0.2286 0.3683-0.1905 0.1778-0.4064 0.1143-0.2921-0.1016-0.508-0.2794-0.2159-0.1651-0.3429-0.4191-0.127-0.2413-0.2159-0.4826-0.0889-0.254-0.0889-0.6223 0-0.381 0-0.6731 0.0127-0.3048 0.1016-0.7747 0.1016-0.4826 0.1651-0.8001 0.0762-0.3175 0.2286-0.8636 0.1524-0.5588 0.2413-0.8763 0.1016-0.3175 0.2794-0.9017 0.127-0.4191 0.2032-0.7874t0.1016-0.762q0.0254-0.4064-0.1397-0.635-0.1524-0.2413-0.4826-0.2413-0.7366 0-1.778 1.2446-1.0287 1.2446-1.7018 2.6543-0.127 0.4318-0.3937 1.3843-0.2667 0.9398-0.4826 1.6129-0.2032 0.6731-0.3556 1.0287-0.0635 0.1524-0.3302 0.2032-0.2667 0.0635-0.508-0.0127-0.2286-0.0635-0.2032-0.2286 0.3302-0.9398 0.6858-2.1463t0.8509-2.9845q0.508-1.778 0.6604-2.2987-0.3937 0.4191-0.9525 0.762t-0.9652 0.508-0.7493 0.4318q-0.3302 0.254-0.3937 0.5842-0.1651 0.8001 0.5334 0.9144 0.1143 0.0127 0.1397 0.1778t-0.0635 0.3175q-0.0762 0.1397-0.2286 0.127-0.8382-0.0254-1.2065-0.5334-0.3556-0.508-0.2159-1.1049 0.1016-0.4826 0.4445-0.8001 0.3556-0.3302 0.8382-0.5334 0.4953-0.2159 1.016-0.4191 0.5334-0.2032 1.1176-0.5715 0.5842-0.3683 1.0033-0.8763 0.0762-0.2032 0.3048-0.2413 0.2413-0.0381 0.4318 0.0762 0.2032 0.1016 0.1905 0.2667-0.2794 1.0287-0.6985 2.5019 1.7018-2.8702 3.3528-2.8575z" style="shape-inside:url(#rect462);white-space:pre"/>
  <path d="m38.223 4.5379q0.6223 0.0254 0.9779 0.3683 0.3683 0.3302 0.381 0.7747 0.0254 0.4445-0.1778 0.9144-0.381 0.762-1.2319 1.0414t-1.9812-0.0254q-0.1016 0.6731 0.2032 1.1303 0.3175 0.4572 0.9652 0.5461 0.508 0.0762 1.0668-0.0889 0.5588-0.1778 1.1557-0.7493 0.5969-0.5715 0.9779-1.4732 0.0381-0.0508 0.127-0.0254 0.1016 0.0127 0.1905 0.1016t0.0635 0.1651q-1.1811 2.9464-3.7465 2.8194-1.2827-0.076201-1.8034-0.9525-0.508-0.889-0.1778-2.0574 0.3302-1.1811 1.1811-1.8669t1.8288-0.6223zm-0.1651 0.7239q-0.508-0.0127-1.0414 0.5334-0.5207 0.5334-0.7239 1.27 1.6383 0.3175 2.1463-0.6731 0.2413-0.381 0.1524-0.7493-0.0762-0.381-0.5334-0.381z" style="shape-inside:url(#rect462);white-space:pre"/>
  <path d="m44.42 10.024q-0.5461-0.0127-0.8128-0.381-0.254-0.3683-0.1905-0.9906-0.9398 1.4097-2.2352 1.3589-0.5588-0.0254-0.8128-0.4191-0.2667-0.4064-0.1651-1.1176 0.0635-0.4699 0.2032-1.0033 0.1397-0.5461 0.2413-0.8763 0.1016-0.3429 0.3048-0.9652 0.2159-0.6223 0.2794-0.8255 0.0889-0.1651 0.3429-0.1905t0.4572 0.0635q0.2159 0.0889 0.1905 0.2286-0.6858 1.9939-0.9271 3.2131-0.0508 0.2413-0.0762 0.4191-0.0127 0.1778 0 0.3556 0.0254 0.1651 0.127 0.2667 0.1143 0.1016 0.2921 0.1143 0.4318 0.0381 0.9906-0.4953 0.5588-0.5334 0.9017-1.4859 0.127-0.4445 0.4064-1.2954 0.2921-0.8509 0.3937-1.1811 0.0635-0.1397 0.3048-0.1778 0.254-0.0508 0.4699 0.0254 0.2286 0.0762 0.2159 0.2286-0.0635 0.2032-0.2921 0.8255-0.2159 0.6223-0.3683 1.1303-0.1397 0.4953-0.2667 1.1303-0.1016 0.4572-0.1016 0.7366 0 0.2794 0.0889 0.4191 0.0889 0.127 0.2794 0.127 0.5842 0 1.0414-0.5842-0.1778-0.2032-0.127-0.4064 0.0635-0.2159 0.2286-0.2667 0.1778-0.0508 0.3429 0.0635 0.3302-0.3937 0.6858-1.4478 0.3556-1.0668 0.3683-1.8415 0.0127-0.127 0.2667-0.1778t0.4953 0.0381q0.254 0.0762 0.254 0.2667-0.0381 0.9271-0.4699 2.0828-0.4318 1.143-0.9017 1.651 0.6731 0.1524 1.3208-0.2159 0.6477-0.381 1.0922-1.4478 0.0381-0.0508 0.1397-0.0254 0.1016 0.0127 0.1778 0.1016 0.0889 0.0889 0.0508 0.1778-0.3048 0.7112-0.7112 1.1684-0.4064 0.4445-0.8128 0.6096-0.4064 0.1524-0.8509 0.1905-0.4318 0.0254-0.8001-0.127-0.9017 0.9652-2.032 0.9525z" style="shape-inside:url(#rect462);white-space:pre"/>
  <path d="m50.854 10.037q-0.6604-0.0127-1.0414-0.508-0.381-0.4953-0.1905-1.2827 0.0762-0.2159 0.3429-0.2286 0.2794-0.0254 0.3048 0.127-0.1143 0.5334 0.0762 0.8382 0.2032 0.3048 0.5842 0.3048 0.508-0.0254 0.7493-0.4318-0.254-0.2032-0.1651-0.5334 0.1016-0.3302 0.3683-0.2921 0.0254-0.4318-0.3556-1.524t-0.381-1.7018q-0.8001 0.7874-1.7399 2.8829-0.0508 0.0635-0.1524 0.0508-0.0889-0.0254-0.1778-0.1016-0.0889-0.0889-0.0635-0.1524 1.0033-2.3495 1.9812-3.1877 0.508-0.4572 0.9525-0.2794 0.3175 0.127 0.2159 0.4445-0.0254 0.1143-0.127 0.2286 0.0381 0.5461 0.2159 1.143 0.1905 0.5969 0.3429 0.9779 0.1524 0.3683 0.2413 0.9144 0.0889 0.5334-0.0635 0.9525 1.1049 0 1.8034-1.7018 0.0381-0.0508 0.1397-0.0254 0.1016 0.0127 0.1905 0.1016t0.0508 0.1651q-0.8636 2.0701-2.4003 1.9685-0.2667 0.4064-0.7239 0.635-0.4572 0.2286-0.9779 0.2159z" style="shape-inside:url(#rect462);white-space:pre"/>
 </g>
</svg>
