<?xml version="1.0" encoding="UTF-8"?>
<svg width="210" height="70" version="1.1" viewBox="0 0 55.562 18.521" xmlns="http://www.w3.org/2000/svg" xmlns:cc="http://creativecommons.org/ns#" xmlns:dc="http://purl.org/dc/elements/1.1/" xmlns:rdf="http://www.w3.org/1999/02/22-rdf-syntax-ns#">
 <metadata>
  <rdf:RDF>
   <cc:Work rdf:about="">
    <dc:format>image/svg+xml</dc:format>
    <dc:type rdf:resource="http://purl.org/dc/dcmitype/StillImage"/>
    <dc:title/>
   </cc:Work>
  </rdf:RDF>
 </metadata>
 <text font-family="'Nexa Script'" font-size="10.583px" style="line-height:1.25;shape-inside:url(#rect456);white-space:pre" xml:space="preserve"/>
 <g transform="translate(-.32376 1.7896)" style="shape-inside:url(#rect462);white-space:pre" aria-label="Ufa News">
  <g transform="translate(9.1096 .50907)" style="shape-inside:url(#rect614);white-space:pre" aria-label="Спорт">
   <path d="m9.3675 1.5891q0.75141 0.042333 1.0795 0.60325 0.32808 0.56091 0.010584 1.3123-0.23283 0.58208-0.83608 0.889-0.59266 0.29633-1.3335 0.22225-0.74083-0.084666-1.3547-0.55033-0.45508 1.0054-0.47625 1.9791-0.021167 1.1853 0.39158 1.7886t1.1747 0.58208q0.6985-0.010583 1.3441-0.4445 0.65616-0.43392 1.0901-1.4499 0.04233-0.042333 0.127-0.021167 0.08467 0.010583 0.15875 0.084666t0.04233 0.13758q-0.508 1.2065-1.2382 1.7674-0.71966 0.55033-1.778 0.5715-1.1324 0.021167-1.7145-0.81491-0.58208-0.83608-0.49742-2.1696 0.10583-1.4817 0.85725-2.6882-0.55033-0.84666-0.58208-1.5769-0.010583-0.10583 0.10583-0.14817 0.11642-0.052916 0.24342-0.010583 0.13758 0.042333 0.14817 0.14817 0.03175 0.4445 0.41275 1.1218 1.1536-1.4182 2.6247-1.3335zm-0.14817 0.66675q-1.1324-0.0635-1.9791 1.2594 0.62441 0.508 1.3758 0.42333 0.762-0.084666 1.0054-0.60325 0.23283-0.39158 0.10583-0.71966-0.11642-0.33867-0.508-0.35983z"/>
   <path d="m13.363 4.4678q0.5715 0.010583 0.75141 0.43392 0.1905 0.41275 0.02117 1.1007-0.05292 0.254-0.22225 0.80433-0.16933 0.53975-0.23283 0.80433-0.04233 0.20108-0.0635 0.30692t-0.03175 0.254q0 0.14817 0.04233 0.22225 0.05292 0.074083 0.15875 0.074083 0.33866 0 0.78316-0.5715 0.45508-0.5715 0.78316-1.3758 0.03175-0.042333 0.11642-0.03175 0.08467 0.010583 0.15875 0.084666t0.04233 0.14817q-0.17992 0.42333-0.39158 0.79375-0.20108 0.35983-0.47625 0.74083-0.26458 0.37042-0.59266 0.59266-0.32808 0.22225-0.66675 0.22225-0.93133 0-0.79375-0.98425 0.02117-0.22225 0.48683-2.1378 0.20108-0.78316-0.24342-0.78316-0.32808 0-0.80433 0.42333-0.47625 0.41275-0.83608 0.96308-0.26458 0.89958-0.58208 2.2966-0.03175 0.074083-0.17992 0.11642-0.13758 0.03175-0.29633 0.021167-0.16933 0-0.29633-0.0635t-0.11642-0.17992q0.16933-0.67733 0.51858-1.9579 0.33866-1.2806 0.55033-2.1272 0.08467-0.1905 0.4445-0.13758 0.37042 0.042333 0.381 0.26458l-0.26458 0.99483q0.37042-0.508 0.86783-0.91016 0.49742-0.41275 0.98425-0.40217z"/>
   <path d="m17.807 4.4678q0.85725-0.021167 1.2065 0.55033 0.35983 0.5715 0.23283 1.3652-0.127 0.79375-0.5715 1.5346 1.0583 0.10583 1.6616-1.397 0.03175-0.042333 0.11642-0.021167 0.09525 0.010583 0.16933 0.084666 0.07408 0.0635 0.04233 0.13758-0.8255 1.9473-2.3177 1.5663-0.70908 0.77258-1.6933 0.77258-0.75141 0-1.1747-0.49742-0.42333-0.49741-0.23283-1.5663 0.17992-1.0583 0.91016-1.778t1.651-0.75141zm-0.08467 0.62441q-0.53975 0.03175-1.0054 0.64558-0.45508 0.61383-0.5715 1.2912-0.22225 1.4182 0.64558 1.4182 0.48683 0 0.91016-0.47625-0.15875-0.22225-0.02117-0.43392 0.14817-0.21167 0.34925-0.127 0.1905-0.40217 0.28575-0.80433 0.10583-0.41275 0.09525-0.762 0-0.34925-0.17992-0.56091-0.16933-0.21167-0.508-0.1905z"/>
   <path d="m23.085 4.489q0.60325 0.010583 0.889 0.41275 0.28575 0.40217 0.254 0.97366-0.02117 0.56091-0.1905 1.1218-0.16933 0.55033-0.41275 0.91016 0.53975 0.09525 0.9525-0.22225 0.42333-0.3175 0.762-1.1642 0.03175-0.042333 0.11642-0.021167 0.08467 0.010583 0.15875 0.084666 0.07408 0.074083 0.05292 0.13758-0.45508 1.0901-1.0689 1.4287-0.60325 0.33867-1.27 0.11642-0.45508 0.49742-1.0054 0.68791-0.53975 0.17992-0.98425 0.0635-0.4445-0.11642-0.71966-0.46567-0.10583 0.508-0.381 1.651-0.27517 1.1536-0.381 1.7039-0.03175 0.09525-0.23283 0.11642-0.20108 0.03175-0.381-0.02117-0.1905-0.05292-0.17992-0.14817 0.762-3.302 1.7357-7.1966 0.03175-0.11642 0.23283-0.13758 0.21167-0.03175 0.40217 0.052917 0.1905 0.084666 0.17992 0.24342l-0.127 0.39158q0.3175-0.33867 0.762-0.52916 0.4445-0.20108 0.83608-0.1905zm-0.37042 0.635q-0.33867 0-0.74083 0.23283-0.39158 0.23283-0.65616 0.53975-0.26458 0.99483-0.53975 2.1167 0.29633 0.4445 0.889 0.43392 0.59266-0.010583 0.97366-0.46567-0.127-0.13758-0.09525-0.28575 0.03175-0.15875 0.16933-0.24342 0.13758-0.09525 0.24342-0.010583 0.17992-0.35983 0.27517-0.75141 0.10583-0.40217 0.11642-0.75141 0.010583-0.35983-0.14817-0.58208-0.15875-0.23283-0.48683-0.23283z"/>
   <path d="m30.51 9.0715q-0.508 0.010583-0.70908-0.27517-0.1905-0.28575-0.10583-0.79375 0.03175-0.21167 0.11642-0.5715 0.09525-0.35983 0.21167-0.80433 0.11642-0.4445 0.16933-0.66675 0.21167-0.81491-0.16933-0.81491-0.34925 0.010583-0.85725 0.56091-0.49742 0.55033-0.67733 1.1324-0.08467 0.32808-0.254 1.0372-0.15875 0.70908-0.23283 0.94191-0.04233 0.10583-0.26458 0.14817-0.21167 0.052917-0.41275 0-0.1905-0.052917-0.1905-0.16933 0.42333-1.6722 0.71966-2.8681 0.17992-0.762-0.21167-0.762-0.29633-0.010583-0.73025 0.46567-0.42333 0.47625-0.74083 1.1218-0.254 0.91016-0.52916 2.0955-0.03175 0.10583-0.26458 0.13758-0.23283 0.03175-0.43392-0.042333-0.21167-0.074083-0.17992-0.23283 0.61383-2.2013 1.0689-4.064 0.05292-0.11642 0.254-0.13758 0.21167-0.021167 0.39158 0.0635 0.1905 0.074083 0.17992 0.21167-0.04233 0.16933-0.127 0.49742-0.08467 0.3175-0.14817 0.508 0.3175-0.55033 0.75142-0.94191 0.4445-0.39158 0.91016-0.381 0.43392 0.010583 0.62442 0.34925 0.20108 0.33867 0.07408 0.86783 0.81491-1.2277 1.6404-1.2171 1.0372 0.010583 0.74083 1.3864-0.03175 0.13758-0.10583 0.381-0.0635 0.23283-0.13758 0.46567-0.07408 0.23283-0.14817 0.49742-0.07408 0.26458-0.127 0.48683-0.04233 0.22225-0.0635 0.40217-0.01058 0.17992 0.03175 0.28575 0.05292 0.09525 0.15875 0.09525 0.34925-0.010583 0.80433-0.60325 0.46566-0.59266 0.762-1.3441 0.04233-0.042333 0.127-0.03175 0.08467 0.010583 0.15875 0.084666t0.04233 0.14817q-0.17992 0.41275-0.39158 0.78316-0.20108 0.37042-0.47625 0.74083-0.27517 0.37042-0.60325 0.59266-0.3175 0.22225-0.64558 0.23283z"/>
  </g>
 </g>
</svg>
