<?xml version="1.0" encoding="UTF-8"?>
<svg width="210" height="70" version="1.1" viewBox="0 0 55.562 18.521" xmlns="http://www.w3.org/2000/svg" xmlns:cc="http://creativecommons.org/ns#" xmlns:dc="http://purl.org/dc/elements/1.1/" xmlns:rdf="http://www.w3.org/1999/02/22-rdf-syntax-ns#">
 <metadata>
  <rdf:RDF>
   <cc:Work rdf:about="">
    <dc:format>image/svg+xml</dc:format>
    <dc:type rdf:resource="http://purl.org/dc/dcmitype/StillImage"/>
    <dc:title/>
   </cc:Work>
  </rdf:RDF>
 </metadata>
 <text font-family="'Nexa Script'" font-size="10.583px" style="line-height:1.25;shape-inside:url(#rect456);white-space:pre" xml:space="preserve"/>
 <g transform="translate(-.32376 1.7896)" style="shape-inside:url(#rect462);white-space:pre" aria-label="Ufa News">
  <g transform="translate(-5.3365 -.40968)" style="shape-inside:url(#rect649);white-space:pre" aria-label="Происшествия">
   <path d="m8.1537 9.3765q-0.62653 0.0084667-0.92287-0.29633-0.28787-0.3048-0.27093-0.75353 0.033867-0.65193 0.54187-1.0329 0.1016-0.084667 0.2794 0.033867t0.11007 0.23707q-0.22013 0.28787-0.26247 0.60113-0.033867 0.3048 0.11007 0.49953 0.1524 0.19473 0.4318 0.19473 0.1778-0.0084667 0.3302-0.11007 0.1524-0.1016 0.254-0.2286 0.1016-0.127 0.21167-0.381 0.11007-0.26247 0.16087-0.4318 0.059267-0.16933 0.16087-0.49953 0.21167-0.6858 0.508-1.7187 0.3048-1.0414 0.3556-1.2023-0.31327-0.13547-0.4826-0.19473-0.16087-0.059267-0.38947-0.1016-0.2286-0.0508-0.4064-0.0254-0.44873 0.059267-0.55033 0.41487-0.093133 0.31327 0.127 0.508 0.2794 0.24553 0.7366-0.059267 0.11007-0.059267 0.21167 0.1016 0.11007 0.16087 0.0254 0.23707-0.5842 0.44873-1.1091 0.3302-0.52493-0.127-0.67733-0.6096-0.13547-0.42333 0.11007-0.84667 0.254-0.4318 0.8636-0.55033 0.16087-0.042333 0.33867-0.042333 0.1778-0.00847 0.36407 0.0254 0.18627 0.0254 0.3556 0.067733 0.16933 0.033867 0.37253 0.1016 0.2032 0.067733 0.3556 0.127 0.16087 0.059267 0.37253 0.14393 0.22013 0.0762 0.36407 0.127 0.84667 0.29633 1.2615 0.254 0.64347-0.067733 0.71967-0.77047 0.03387-0.11007 0.23707-0.093133 0.2032 0.00847 0.2032 0.13547 0.01693 0.60113-0.34713 0.97367-0.36407 0.37253-0.99907 0.33867-0.72813-0.042333-1.4732-0.37253-0.32173 1.2107-0.70273 2.4892-0.13547 0.44027-0.22013 0.69427-0.084667 0.254-0.21167 0.56727-0.127 0.31327-0.254 0.4826-0.127 0.16933-0.3048 0.33867-0.16933 0.16087-0.38947 0.2286-0.22013 0.067733-0.49953 0.067733zm3.3782-0.00847q-0.32173 0-0.508-0.14393-0.1778-0.14393-0.22013-0.4318-0.04233-0.28787-0.0085-0.635 0.04233-0.3556 0.16087-0.84667 0.09313-0.4572 0.5588-1.9389 0.04233-0.093133 0.19473-0.11007 0.16087-0.016933 0.28787 0.0508 0.127 0.059267 0.1016 0.16933-0.34713 1.0329-0.52493 1.8119-0.21167 0.6858-0.2032 1.1261 0.01693 0.44027 0.381 0.44027 0.7112 0 1.397-1.5155 0.0254-0.042333 0.09313-0.0254 0.06773 0.00847 0.127 0.067733 0.05927 0.059267 0.03387 0.11853-0.82973 1.8627-1.8711 1.8627z"/>
   <path d="m15.332 5.7105q0.4826 0.00847 0.7112 0.3302 0.2286 0.32173 0.2032 0.77893-0.01693 0.44873-0.1524 0.89747-0.13547 0.44027-0.3302 0.72813 0.4318 0.0762 0.762-0.1778 0.33867-0.254 0.6096-0.93133 0.0254-0.033867 0.09313-0.016933 0.06773 0.00847 0.127 0.067733 0.05927 0.059267 0.04233 0.11007-0.36407 0.87207-0.85513 1.143-0.4826 0.27093-1.016 0.093133-0.36407 0.39793-0.80433 0.55033-0.4318 0.14393-0.7874 0.0508-0.3556-0.093133-0.57573-0.37253-0.08467 0.4064-0.3048 1.3208-0.22013 0.92287-0.3048 1.3631-0.0254 0.0762-0.18627 0.09313-0.16087 0.0254-0.3048-0.01693-0.1524-0.04233-0.14393-0.11853 0.6096-2.6416 1.3885-5.7573 0.0254-0.093133 0.18627-0.11007 0.16933-0.0254 0.32173 0.042333t0.14393 0.19473l-0.1016 0.31327q0.254-0.27093 0.6096-0.42333 0.3556-0.16087 0.66887-0.1524zm-0.29633 0.508q-0.27093 0-0.59267 0.18627-0.31327 0.18627-0.52493 0.4318-0.21167 0.79587-0.4318 1.6933 0.23707 0.3556 0.7112 0.34713 0.47413-0.00847 0.77893-0.37253-0.1016-0.11007-0.0762-0.2286 0.0254-0.127 0.13547-0.19473 0.11007-0.0762 0.19473-0.00847 0.14393-0.28787 0.22013-0.60113 0.08467-0.32173 0.09313-0.60113 0.0085-0.28787-0.11853-0.46567-0.127-0.18627-0.38947-0.18627z"/>
   <path d="m19.096 5.6935q0.6858-0.016933 0.9652 0.44027 0.28787 0.4572 0.18627 1.0922-0.1016 0.635-0.4572 1.2277 0.84667 0.084667 1.3293-1.1176 0.0254-0.033867 0.09313-0.016933 0.0762 0.00847 0.13547 0.067733 0.05927 0.0508 0.03387 0.11007-0.6604 1.5579-1.8542 1.2531-0.56727 0.61807-1.3547 0.61807-0.60113 0-0.9398-0.39793t-0.18627-1.2531q0.14393-0.84667 0.72813-1.4224 0.5842-0.57573 1.3208-0.60113zm-0.06773 0.49953q-0.4318 0.0254-0.80433 0.51647-0.36407 0.49107-0.4572 1.0329-0.1778 1.1345 0.51647 1.1345 0.38947 0 0.72813-0.381-0.127-0.1778-0.01693-0.34713 0.11853-0.16933 0.2794-0.1016 0.1524-0.32173 0.2286-0.64347 0.08467-0.3302 0.0762-0.6096 0-0.2794-0.14393-0.44873-0.13547-0.16933-0.4064-0.1524z"/>
   <path d="m23.615 5.8544q0.05927-0.14393 0.36407-0.093133 0.3048 0.042333 0.29633 0.2032-0.127 0.37253-0.23707 0.77047-0.11007 0.38947-0.23707 0.9144-0.127 0.52493-0.11853 0.85513 0.0085 0.3302 0.1778 0.3302 0.27093 0.00847 0.61807-0.4318 0.3556-0.44873 0.60113-1.0583 0.0254-0.042333 0.09313-0.0254 0.06773 0.00847 0.127 0.067733 0.05927 0.059267 0.03387 0.11007-0.46567 0.97367-0.82973 1.3631-0.4318 0.4572-0.88053 0.44873-0.33867 0-0.47413-0.32173-0.127-0.32173-0.0254-0.70273-0.67733 1.1345-1.5579 1.0753-0.381-0.00847-0.5588-0.2794-0.1778-0.2794-0.1016-0.72813 0.05927-0.39793 0.16933-0.82973 0.11007-0.4318 0.254-0.9144 0.14393-0.4826 0.2032-0.72813 0.03387-0.1016 0.19473-0.127 0.16933-0.0254 0.31327 0.033867 0.1524 0.059267 0.14393 0.1524-0.04233 0.1778-0.23707 0.9144-0.19473 0.7366-0.28787 1.1599-0.09313 0.32173-0.06773 0.5842 0.03387 0.26247 0.27093 0.27093 0.28787 0 0.6604-0.33867 0.37253-0.33867 0.57573-0.9144 0.16933-0.49107 0.51647-1.7611z"/>
   <path d="m27.008 5.702q0.49953 0.00847 0.7366 0.254 0.23707 0.24553 0.1778 0.56727-0.0508 0.31327-0.3302 0.5588-0.0762 0.067733-0.23707 0.0762-0.1524 0-0.27093-0.042333-0.11007-0.0508-0.08467-0.11853 0.14393-0.16087 0.21167-0.3302 0.06773-0.1778 0.01693-0.31327-0.04233-0.14393-0.24553-0.16087-0.4318-0.042333-0.82973 0.47413-0.38947 0.508-0.4572 1.1684-0.04233 0.44027 0.1778 0.72813 0.22013 0.2794 0.65193 0.31327 0.60113 0.042333 1.143-0.34713 0.55033-0.39793 0.88053-1.1938 0.0254-0.033867 0.09313-0.016933 0.06773 0.00847 0.127 0.067733 0.05927 0.059267 0.03387 0.11007-0.80433 1.9389-2.5146 1.8711-0.635-0.033867-0.99907-0.49107-0.3556-0.4572-0.31327-1.0753 0.0508-0.80433 0.64347-1.4563 0.59267-0.65193 1.3885-0.64347z"/>
   <path d="m28.974 9.3596q-0.37253-0.016933-0.55033-0.28787-0.18627-0.27093-0.11007-0.71967 0.05927-0.39793 0.16087-0.8128 0.1016-0.41487 0.254-0.92287t0.2032-0.71967q0.03387-0.1524 0.381-0.127 0.29633 0.016933 0.29633 0.13547 0 0.016933 0 0.0254-0.4572 1.6764-0.5588 2.1844-0.16933 0.74507 0.2286 0.75353 0.28787 0 0.6096-0.3556 0.3302-0.3556 0.55033-0.9906 0.11007-0.3302 0.254-0.88053 0.14393-0.55033 0.2032-0.74507 0.04233-0.1524 0.381-0.127 0.29633 0.016933 0.29633 0.13547v0.0254q-0.42333 1.3801-0.57573 2.1844-0.16933 0.74507 0.2286 0.75353 0.27093 0 0.5842-0.3302 0.32173-0.3302 0.55033-0.90593 0.09313-0.23707 0.1778-0.52493 0.08467-0.29633 0.1778-0.66887 0.1016-0.37253 0.16087-0.57573 0.0254-0.084667 0.2032-0.1016 0.1778-0.016933 0.3302 0.042333 0.1524 0.059267 0.127 0.1524-0.09313 0.31327-0.14393 0.47413-0.0508 0.16087-0.16933 0.57573-0.11007 0.41487-0.16087 0.66887t-0.09313 0.5588q-0.04233 0.29633-0.0085 0.44873 0.04233 0.1524 0.1524 0.1524 0.3048 0.00847 0.64347-0.44027 0.33867-0.44873 0.5842-1.0583 0.03387-0.033867 0.09313-0.016933 0.06773 0.00847 0.127 0.067733 0.05927 0.059267 0.04233 0.11007-0.127 0.26247-0.2032 0.41487t-0.26247 0.4572q-0.18627 0.3048-0.3556 0.4826-0.16087 0.16933-0.4064 0.31327-0.23707 0.14393-0.47413 0.14393-0.3302 0-0.47413-0.28787-0.13547-0.28787-0.0762-0.6604-0.62653 1.0414-1.4224 0.99907-0.31323-0.016933-0.4995-0.22013-0.18627-0.2032-0.1778-0.56727-0.55033 0.8128-1.2785 0.7874z"/>
   <path d="m36.328 5.7105q0.41487 0.016933 0.65193 0.24553 0.24553 0.22013 0.254 0.51647 0.01693 0.29633-0.11853 0.6096-0.254 0.508-0.82127 0.69427-0.56727 0.18627-1.3208-0.016933-0.06773 0.44873 0.13547 0.75353 0.21167 0.3048 0.64347 0.36407 0.33867 0.0508 0.7112-0.059267 0.37253-0.11853 0.77047-0.49953 0.39793-0.381 0.65193-0.98213 0.0254-0.033867 0.08467-0.016933 0.06773 0.00847 0.127 0.067733 0.05927 0.059267 0.04233 0.11007-0.7874 1.9643-2.4977 1.8796-0.85513-0.0508-1.2023-0.635-0.33867-0.59267-0.11853-1.3716 0.22013-0.7874 0.7874-1.2446t1.2192-0.41487zm-0.11007 0.4826q-0.33867-0.00847-0.69427 0.3556-0.34713 0.3556-0.4826 0.84667 1.0922 0.21167 1.4309-0.44873 0.16087-0.254 0.1016-0.49953-0.0508-0.254-0.3556-0.254z"/>
   <path d="m39.808 5.702q0.49953 0.00847 0.7366 0.254 0.23707 0.24553 0.1778 0.56727-0.0508 0.31327-0.3302 0.5588-0.0762 0.067733-0.23707 0.0762-0.1524 0-0.27093-0.042333-0.11007-0.0508-0.08467-0.11853 0.14393-0.16087 0.21167-0.3302 0.06773-0.1778 0.01693-0.31327-0.04233-0.14393-0.24553-0.16087-0.4318-0.042333-0.82973 0.47413-0.38947 0.508-0.4572 1.1684-0.04233 0.44027 0.1778 0.72813 0.22013 0.2794 0.65193 0.31327 0.60113 0.042333 1.143-0.34713 0.55033-0.39793 0.88053-1.1938 0.0254-0.033867 0.09313-0.016933 0.06773 0.00847 0.127 0.067733 0.05927 0.059267 0.03387 0.11007-0.80433 1.9389-2.5146 1.8711-0.635-0.033867-0.99907-0.49107-0.3556-0.4572-0.31327-1.0753 0.0508-0.80433 0.64347-1.4563 0.59267-0.65193 1.3885-0.64347z"/>
   <path d="m45.465 9.3765q-0.4064 0.00847-0.56727-0.22013-0.1524-0.2286-0.08467-0.635 0.0254-0.16933 0.09313-0.4572 0.0762-0.28787 0.16933-0.64347 0.09313-0.3556 0.13547-0.5334 0.16933-0.65193-0.13547-0.65193-0.2794 0.00847-0.6858 0.44873-0.39793 0.44027-0.54187 0.90593-0.06773 0.26247-0.2032 0.82973-0.127 0.56727-0.18627 0.75353-0.03387 0.084667-0.21167 0.11853-0.16933 0.042333-0.3302 0-0.1524-0.042333-0.1524-0.13547 0.33867-1.3377 0.57573-2.2945 0.14393-0.6096-0.16933-0.6096-0.23707-0.00847-0.5842 0.37253-0.33867 0.381-0.59267 0.89747-0.2032 0.72813-0.42333 1.6764-0.0254 0.084667-0.21167 0.11007-0.18627 0.0254-0.34713-0.033867-0.16933-0.059267-0.14393-0.18627 0.49107-1.7611 0.85513-3.2512 0.04233-0.093133 0.2032-0.11007 0.16933-0.016933 0.31327 0.0508 0.1524 0.059267 0.14393 0.16933-0.03387 0.13547-0.1016 0.39793-0.06773 0.254-0.11853 0.4064 0.254-0.44027 0.60113-0.75353 0.3556-0.31327 0.72813-0.3048 0.34713 0.00847 0.49953 0.2794 0.16087 0.27093 0.05927 0.69427 0.65193-0.98213 1.3123-0.97367 0.82973 0.00847 0.59267 1.1091-0.0254 0.11007-0.08467 0.3048-0.0508 0.18627-0.11007 0.37253-0.05927 0.18627-0.11853 0.39793-0.05927 0.21167-0.1016 0.38947-0.03387 0.1778-0.0508 0.32173-0.0085 0.14393 0.0254 0.2286 0.04233 0.0762 0.127 0.0762 0.2794-0.00847 0.64347-0.4826 0.37253-0.47413 0.6096-1.0753 0.03387-0.033867 0.1016-0.0254 0.06773 0.00847 0.127 0.067733 0.05927 0.059267 0.03387 0.11853-0.14393 0.3302-0.31327 0.62653-0.16087 0.29633-0.381 0.59267-0.22013 0.29633-0.4826 0.47413-0.254 0.1778-0.51647 0.18627z"/>
   <path d="m47.939 9.3511q-1.3123-0.059267-1.0583-1.8203 0.26247-2.0489 0.95673-3.1496 0.5588-0.88053 1.3885-0.93133 0.41487-0.016933 0.67733 0.16087 0.27093 0.1778 0.3302 0.4826 0.05927 0.29633-0.01693 0.62653t-0.33867 0.6604q-0.26247 0.3302-0.65193 0.5334 0.37253 0.016933 0.57573 0.29633 0.2032 0.27093 0.22013 0.6604 0.01693 0.381-0.1016 0.8128-0.11853 0.4318-0.34713 0.77893 0.4318 0.059267 0.762-0.1778 0.33867-0.23707 0.61807-0.9398 0.0254-0.033867 0.09313-0.016933 0.06773 0.00847 0.127 0.067733 0.05927 0.059267 0.03387 0.11007-0.381 0.87207-0.82973 1.1345-0.44873 0.26247-1.0583 0.1016-0.6096 0.64347-1.3801 0.6096zm-0.127-3.1581q0.88053-0.44027 1.1007-0.6096 0.4826-0.34713 0.6604-0.889 0.16933-0.508-0.127-0.65193-0.08467-0.042333-0.18627-0.042333-0.88053-0.033867-1.4478 2.1929zm0.22013 2.6755q0.38947 0.016933 0.762-0.36407-0.13547-0.16933-0.0085-0.3302 0.127-0.16933 0.2794-0.093133 0.23707-0.4318 0.2794-0.82973 0.0508-0.4064-0.08467-0.65193-0.127-0.24553-0.39793-0.254-0.5334-0.0254-1.1938 0.47413-0.44873 2.0151 0.36407 2.0489z"/>
   <path d="m53.447 5.8544q0.05927-0.14393 0.36407-0.093133 0.3048 0.042333 0.29633 0.2032-0.127 0.37253-0.23707 0.77047-0.11007 0.38947-0.23707 0.9144-0.127 0.52493-0.11853 0.85513 0.0085 0.3302 0.1778 0.3302 0.27093 0.00847 0.61807-0.4318 0.3556-0.44873 0.60113-1.0583 0.0254-0.042333 0.09313-0.0254 0.06773 0.00847 0.127 0.067733 0.05927 0.059267 0.03387 0.11007-0.46567 0.97367-0.82973 1.3631-0.4318 0.4572-0.88053 0.44873-0.33867 0-0.47413-0.32173-0.127-0.32173-0.0254-0.70273-0.67733 1.1345-1.5579 1.0753-0.381-0.00847-0.5588-0.2794-0.1778-0.2794-0.1016-0.72813 0.05927-0.39793 0.16933-0.82973 0.11007-0.4318 0.254-0.9144 0.14393-0.4826 0.2032-0.72813 0.03387-0.1016 0.19473-0.127 0.16933-0.0254 0.31327 0.033867 0.1524 0.059267 0.14393 0.1524-0.04233 0.1778-0.23707 0.9144-0.19473 0.7366-0.28787 1.1599-0.09313 0.32173-0.06773 0.5842 0.03387 0.26247 0.27093 0.27093 0.28787 0 0.6604-0.33867 0.37253-0.33867 0.57573-0.9144 0.16933-0.49107 0.51647-1.7611z"/>
   <path d="m55.274 9.3681q-0.39793-0.016933-0.55033-0.33867-0.1524-0.32173-0.08467-0.762 0.05927-0.44027 0.27093-0.92287 0.03387-0.042333 0.1016-0.0254 0.06773 0.00847 0.127 0.067733 0.05927 0.059267 0.03387 0.11007-0.2032 0.381-0.19473 0.87207 0.01693 0.4826 0.32173 0.508 0.44027 0.033867 0.9144-0.94827-0.31327-0.1016-0.4826-0.42333-0.16087-0.3302-0.01693-0.82127 0.1524-0.5334 0.6604-0.79587 0.51647-0.27093 1.143-0.18627 0.62653 0.0762 1.1007 0.49107 0.04233 0.033867-0.01693 0.14393-0.05927 0.11007-0.16087 0.18627-0.09313 0.0762-0.1524 0.0254-0.5588-0.4826-1.2615-0.36407-0.55033 0.11007-0.7112 0.5842-0.13547 0.38947 0.01693 0.61807 0.16087 0.22013 0.44027 0.2032 0.28787-0.016933 0.47413-0.24553 0.04233-0.127 0.11853-0.381 0.08467-0.254 0.127-0.381 0.0508-0.067733 0.1778-0.0508 0.13547 0.00847 0.26247 0.084667 0.13547 0.067733 0.11007 0.13547-0.13547 0.39793-0.22013 0.70273-0.08467 0.3048-0.1524 0.65193-0.06773 0.33867-0.0254 0.5334 0.0508 0.18627 0.21167 0.19473 0.2794 0.033867 0.6604-0.4318 0.381-0.46567 0.62653-1.0583 0.0254-0.042333 0.08467-0.0254 0.06773 0.00847 0.127 0.067733 0.05927 0.059267 0.04233 0.11007-0.18627 0.41487-0.4318 0.79587-0.24553 0.381-0.61807 0.70273-0.37253 0.32173-0.71967 0.32173-0.4064-0.00847-0.54187-0.41487-0.127-0.41487 0.0508-1.0922-0.1524 0.11853-0.3302 0.16933-0.3302 0.72813-0.6858 1.0753-0.34714 0.33867-0.84667 0.31327z"/>
  </g>
 </g>
</svg>
